<?xml version="1.0" encoding="utf-8"?>
<svg version="1.0" width="500.000000pt" height="500.000000pt" viewBox="0 0 500.000000 500.000000" preserveAspectRatio="xMidYMid meet" xmlns="http://www.w3.org/2000/svg">
  <defs>
    <radialGradient r="0.8" id="gradient-13">
      <stop offset="0" style="stop-color: rgb(30, 47, 134);"/>
      <stop offset="1" style="stop-color: rgb(11, 18, 51);"/>
    </radialGradient>
    <radialGradient r="0.8" id="gradient-15">
      <stop offset="0" style="stop-color: rgb(30, 47, 134);"/>
      <stop offset="1" style="stop-color: rgb(11, 18, 51);"/>
    </radialGradient>
    <radialGradient r="0.8" id="gradient-20">
      <stop offset="0" style="stop-color: rgb(30, 47, 134);"/>
      <stop offset="1" style="stop-color: rgb(11, 18, 51);"/>
    </radialGradient>
    <radialGradient r="0.8" id="gradient-21">
      <stop offset="0" style="stop-color: rgb(30, 47, 134);"/>
      <stop offset="1" style="stop-color: rgb(11, 18, 51);"/>
    </radialGradient>
    <radialGradient r="0.8" id="gradient-3">
      <stop offset="0" style="stop-color: rgb(30, 47, 134);"/>
      <stop offset="1" style="stop-color: rgb(11, 18, 51);"/>
    </radialGradient>
    <radialGradient r="0.8" id="gradient-0">
      <stop offset="0" style="stop-color: rgb(30, 47, 134);"/>
      <stop offset="1" style="stop-color: rgb(11, 18, 51);"/>
    </radialGradient>
    <radialGradient r="0.8" id="gradient-10">
      <stop offset="0" style="stop-color: rgb(30, 47, 134);"/>
      <stop offset="1" style="stop-color: rgb(11, 18, 51);"/>
    </radialGradient>
    <radialGradient r="0.8" id="gradient-11">
      <stop offset="0" style="stop-color: rgb(30, 47, 134);"/>
      <stop offset="1" style="stop-color: rgb(11, 18, 51);"/>
    </radialGradient>
    <radialGradient r="0.8" id="gradient-16">
      <stop offset="0" style="stop-color: rgb(30, 47, 134);"/>
      <stop offset="1" style="stop-color: rgb(11, 18, 51);"/>
    </radialGradient>
    <radialGradient gradientUnits="userSpaceOnUse" cx="2514.172" cy="2484.099" r="2404.55" id="gradient-17">
      <stop offset="0" style="stop-color: rgba(218, 221, 236, 1)"/>
      <stop offset="1" style="stop-color: rgba(151, 159, 201, 1)"/>
    </radialGradient>
    <radialGradient gradientUnits="userSpaceOnUse" cx="194.476" cy="290.617" r="47.701" id="gradient-1">
      <stop offset="0" style="stop-color: rgba(172, 178, 212, 1)"/>
      <stop offset="1" style="stop-color: rgba(105, 116, 177, 1)"/>
    </radialGradient>
    <radialGradient gradientUnits="userSpaceOnUse" cx="296.431" cy="290.922" r="47.701" id="gradient-7">
      <stop offset="0" style="stop-color: rgba(171, 177, 211, 1)"/>
      <stop offset="1" style="stop-color: rgba(104, 115, 176, 1)"/>
    </radialGradient>
    <linearGradient gradientUnits="userSpaceOnUse" x1="218.546" y1="112.278" x2="218.546" y2="266.025" id="gradient-14">
      <stop offset="0" style="stop-color: rgba(175, 182, 214, 1)"/>
      <stop offset="1" style="stop-color: rgba(108, 121, 179, 1)"/>
    </linearGradient>
    <radialGradient gradientUnits="userSpaceOnUse" cx="273.006" cy="190.714" r="44.353" id="gradient-5">
      <stop offset="0" style="stop-color: rgba(180, 185, 216, 1)"/>
      <stop offset="1" style="stop-color: rgba(113, 122, 181, 1)"/>
    </radialGradient>
    <radialGradient gradientUnits="userSpaceOnUse" cx="288.733" cy="194.384" r="14.493" id="gradient-18">
      <stop offset="0" style="stop-color: rgba(181, 22, 62, 1)"/>
      <stop offset="1" style="stop-color: rgba(90, 11, 31, 1)"/>
    </radialGradient>
    <radialGradient gradientUnits="userSpaceOnUse" cx="247.167" cy="270.662" r="14.493" id="gradient-4">
      <stop offset="0" style="stop-color: rgba(176, 225, 15, 1)"/>
      <stop offset="1" style="stop-color: rgba(101, 130, 9, 1)"/>
    </radialGradient>
    <radialGradient gradientUnits="userSpaceOnUse" cx="247.167" cy="270.662" r="14.493" id="gradient-19" gradientTransform="matrix(1, 0, 0, 1, -71.550676, 34.510407)">
      <stop offset="0" style="stop-color: rgba(176, 225, 15, 1)"/>
      <stop offset="1" style="stop-color: rgba(101, 130, 9, 1)"/>
    </radialGradient>
    <radialGradient gradientUnits="userSpaceOnUse" cx="247.167" cy="270.662" r="14.493" id="gradient-22" gradientTransform="matrix(1, 0, 0, 1, -54.95491, -160.577931)">
      <stop offset="0" style="stop-color: rgba(176, 225, 15, 1)"/>
      <stop offset="1" style="stop-color: rgba(101, 130, 9, 1)"/>
    </radialGradient>
    <linearGradient gradientUnits="userSpaceOnUse" x1="203.501" y1="179.127" x2="203.501" y2="208.113" id="gradient-23">
      <stop offset="0" style="stop-color: rgb(30, 47, 134);"/>
      <stop offset="1" style="stop-color: rgb(11, 18, 51);"/>
    </linearGradient>
    <linearGradient gradientUnits="userSpaceOnUse" x1="248.963" y1="130.207" x2="248.963" y2="159.193" id="gradient-9">
      <stop offset="0" style="stop-color: rgb(30, 47, 134);"/>
      <stop offset="1" style="stop-color: rgb(11, 18, 51);"/>
    </linearGradient>
    <linearGradient gradientUnits="userSpaceOnUse" x1="297.511" y1="93.89" x2="297.511" y2="122.876" id="gradient-2">
      <stop offset="0" style="stop-color: rgb(30, 47, 134);"/>
      <stop offset="1" style="stop-color: rgb(11, 18, 51);"/>
    </linearGradient>
    <linearGradient gradientUnits="userSpaceOnUse" x1="342.037" y1="165.401" x2="342.037" y2="194.387" id="gradient-6">
      <stop offset="0" style="stop-color: rgb(30, 47, 134);"/>
      <stop offset="1" style="stop-color: rgb(11, 18, 51);"/>
    </linearGradient>
    <linearGradient gradientUnits="userSpaceOnUse" x1="319.773" y1="297.63" x2="319.773" y2="326.616" id="gradient-12">
      <stop offset="0" style="stop-color: rgb(30, 47, 134);"/>
      <stop offset="1" style="stop-color: rgb(11, 18, 51);"/>
    </linearGradient>
  </defs>
  <g transform="matrix(0.1, 0, 0, -0.1, 0, 500)" fill="#000000" stroke="none">
    <title>REST</title>
    <path d="M1105 4883 c-279 -35 -486 -133 -671 -317 -173 -173 -283 -397 -313 -641 -15 -120 -15 -2732 -1 -2860 45 -387 261 -697 605 -865 135 -67 237 -96 387 -111 67 -6 584 -9 1478 -6 1499 3 1409 0 1585 59 312 104 579 371 683 683 59 177 56 84 60 1600 2 988 0 1419 -8 1489 -29 250 -137 476 -314 652 -153 152 -326 247 -547 300 -69 17 -174 18 -1494 20 -781 1 -1433 0 -1450 -3z m1405 -326 l0 -203 119 -12 c125 -12 351 -65 436 -102 147 -63 321 -197 421 -324 105 -132 170 -275 225 -496 33 -131 37 -389 10 -643 -12 -108 -21 -210 -21 -226 l0 -28 85 -5 c96 -6 137 -25 172 -77 46 -69 53 -147 28 -316 -57 -378 -139 -508 -340 -541 -39 -6 -41 -8 -77 -92 -109 -252 -364 -586 -533 -699 -128 -85 -262 -140 -417 -169 l-98 -18 0 -168 c0 -141 -2 -168 -15 -168 -12 0 -15 28 -17 167 l-3 167 -90 13 c-59 8 -93 9 -99 3 -15 -15 -33 -12 -38 8 -3 11 -26 24 -62 35 -32 10 -87 32 -123 48 -39 17 -74 27 -85 23 -14 -4 -21 0 -25 15 -3 11 -55 62 -115 112 -103 86 -183 170 -232 245 -11 18 -31 35 -42 38 -15 4 -23 16 -27 38 -3 18 -36 92 -74 163 -37 72 -75 149 -82 173 -16 48 -34 62 -83 62 -96 1 -209 101 -249 221 -7 19 -17 41 -24 49 -7 8 -15 31 -18 50 -3 19 -13 73 -22 120 -11 53 -18 136 -19 220 -1 125 1 139 24 185 36 72 70 87 188 83 l93 -4 -6 56 c-3 30 -18 150 -32 265 -39 320 -26 568 39 760 27 77 96 215 143 285 20 30 41 65 46 78 5 12 14 22 20 22 6 0 41 27 77 61 222 203 465 300 815 325 l97 7 0 198 c0 170 2 199 15 199 13 0 15 -29 15 -203z" style="fill-opacity: 0.88; paint-order: stroke; fill: url(#gradient-17);">
      <title>Rest</title>
    </path>
  </g>
  <g>
    <path style="fill: url(#gradient-11); fill-opacity: 0.92;" d="M 205.823 192.52 L 170.382 312.132 L 176.473 316.562" transform="matrix(0.99925, -0.038727, 0.038727, 0.99925, -9.716501, 7.475595)"/>
    <path style="fill-opacity: 0.92; fill: url(#gradient-16);" d="M 320.739 316.425 L 288.166 196.813 L 293.764 192.383" transform="matrix(-1, 0, 0, -1, 608.904999, 508.807983)"/>
    <path style="fill: url(#gradient-0); fill-opacity: 0.92;" d="M 201.938 191.016 L 245.689 141.536 L 206.626 194.141"/>
    <path style="fill-opacity: 0.92; fill: url(#gradient-10);" d="M 246.73 145.442 L 290.481 194.922 L 251.418 142.317" transform="matrix(-1, 0, 0, -1, 537.210983, 337.238998)"/>
  </g>
  <ellipse style="fill: url(#gradient-23);" cx="203.501" cy="193.62" rx="14.493" ry="14.493"/>
  <g>
    <title>RED</title>
    <ellipse style="paint-order: fill; fill: url(#gradient-18);" cx="288.733" cy="194.384" rx="14.493" ry="14.493">
      <title>RED</title>
    </ellipse>
  </g>
  <path style="fill-opacity: 0.92; fill: url(#gradient-1);" d="M 242.178 401.083 L 218.506 267.662 L 146.775 180.15" transform="matrix(-1, 0, 0, -1, 388.952988, 581.233002)"/>
  <path style="fill-opacity: 0.92; fill: url(#gradient-14);" d="M 174.194 266.025 L 262.899 112.278 L 260.613 132.274" transform="matrix(-0.658952, 0.752185, -0.752185, -0.658952, 504.835065, 149.405899)"/>
  <path style="fill-opacity: 0.92; fill: url(#gradient-5);" d="M 228.653 113.84 L 317.358 267.587 L 315.072 247.591" transform="matrix(0.667473, 0.744634, -0.744634, 0.667473, 232.793434, -139.871787)"/>
  <path style="fill-opacity: 0.92; fill: url(#gradient-3);" d="M 249.112 267.91 L 320.165 314.441 L 320.76 308.389" transform="matrix(-1, 0, 0, -1, 569.872009, 582.351013)"/>
  <path style="fill: url(#gradient-13); fill-opacity: 0.92;" d="M 322.881 312.341 L 343.693 179.032"/>
  <path style="fill-opacity: 0.92; fill: url(#gradient-7);" d="M 344.133 180.455 L 320.461 313.876 L 248.73 401.388"/>
  <path style="fill: url(#gradient-15); fill-opacity: 0.92;" d="M 326.2 131.678 L 435.949 152.48"/>
  <path style="fill: url(#gradient-20); fill-opacity: 0.92;" d="M 164.06 310.74 L 248.718 267.171 L 249.427 272.839"/>
  <path style="fill: url(#gradient-21); fill-opacity: 0.92;" d="M 323.812 306.843 L 324.52 311.094"/>
  <g>
    <title>Green</title>
    <ellipse style="fill: url(#gradient-4); fill-opacity: 0.97;" cx="247.167" cy="270.662" rx="14.493" ry="14.493"/>
    <ellipse style="fill-opacity: 0.97; fill: url(#gradient-19);" cx="175.616" cy="305.172" rx="14.493" ry="14.493"/>
    <ellipse style="fill-opacity: 0.97; fill: url(#gradient-22);" cx="192.212" cy="110.084" rx="14.493" ry="14.493"/>
  </g>
  <ellipse style="fill: url(#gradient-9);" cx="248.963" cy="144.7" rx="14.493" ry="14.493"/>
  <ellipse style="fill: url(#gradient-6);" cx="342.037" cy="179.894" rx="14.493" ry="14.493"/>
  <ellipse style="fill-opacity: 0.92; fill: url(#gradient-12); fill-rule: evenodd;" cx="319.773" cy="312.123" rx="14.493" ry="14.493"/>
  <ellipse style="fill-opacity: 0.92; fill: url(#gradient-2);" cx="297.511" cy="108.383" rx="14.493" ry="14.493"/>
</svg>